# xmcd CD database file
#
# Track frame offsets:
#	150
#	20277
#	60727
#
# Disc length: 1127 seconds
#
# Revision: 0
# Processed by: cddbd v1.5.1PL0 Copyright (c) Steve Scherf et al.
# Submitted via: CDex 1.51
#
DISCID=1c046503
DTITLE=BUCK-TICK - die
DYEAR=1993
DGENRE=Rock
TTITLE0=die
TTITLE1=darker than darkness(live)
TTITLE2=die(live)
EXTD=YEAR: 1993
EXTT0=
EXTT1=
EXTT2=
PLAYORDER=
